<?xml version="1.0" standalone="no"?>
<!DOCTYPE svg PUBLIC "-//W3C//DTD SVG 20010904//EN"
 "http://www.w3.org/TR/2001/REC-SVG-20010904/DTD/svg10.dtd">
<svg version="1.0" xmlns="http://www.w3.org/2000/svg"
 width="71.000000pt" height="71.000000pt" viewBox="0 0 71.000000 71.000000"
 preserveAspectRatio="xMidYMid meet">
<metadata>
Created by potrace 1.14, written by Peter Selinger 2001-2017
</metadata>
<g transform="translate(0.000000,71.000000) scale(0.100000,-0.100000)"
fill="#000000" stroke="none">
<path d="M533 656 c3 -8 -5 -19 -21 -27 -15 -7 -31 -15 -36 -18 -5 -2 -6 1 -3
6 4 7 -3 10 -18 9 -14 0 -25 -3 -25 -6 0 -3 -9 -6 -19 -6 -11 0 -18 3 -15 7 2
4 -7 6 -21 5 -14 0 -25 -4 -25 -8 0 -4 -11 -3 -25 2 -18 7 -25 6 -25 -3 0 -9
-3 -8 -9 1 -4 8 -12 14 -16 14 -4 0 -12 -6 -16 -14 -6 -9 -9 -9 -9 -1 0 8 -9
9 -30 3 -19 -5 -28 -5 -25 1 8 11 7 11 -33 0 -18 -6 -30 -6 -27 -1 3 4 -6 7
-20 6 -14 0 -25 -5 -25 -10 0 -5 -6 -3 -14 3 -11 9 -15 9 -19 -1 -3 -7 -6 -8
-6 -2 -1 6 -12 9 -26 6 -24 -4 -25 -8 -25 -69 0 -55 2 -64 16 -59 8 3 13 2 10
-3 -3 -5 2 -12 11 -15 15 -6 15 -8 3 -16 -8 -6 -10 -10 -4 -10 6 0 11 -7 12
-15 1 -8 3 -22 4 -29 1 -8 4 -15 7 -14 20 2 31 -3 26 -12 -3 -5 -2 -10 4 -10
6 0 7 -7 4 -17 -4 -11 -3 -14 5 -9 7 4 12 1 12 -9 0 -9 5 -13 10 -10 6 4 10 3
9 -2 -4 -25 4 -41 26 -51 19 -9 25 -9 25 1 0 8 4 7 10 -3 9 -13 10 -13 10 0 0
9 3 11 8 5 11 -15 42 -18 42 -3 0 8 3 9 8 3 4 -5 14 -10 22 -10 8 0 18 5 22
10 5 6 8 4 8 -5 0 -13 1 -13 10 0 7 11 10 11 10 2 0 -7 4 -11 9 -8 5 4 12 0
14 -6 3 -8 6 -5 6 6 1 14 4 16 14 7 10 -8 17 -7 25 1 9 9 12 9 12 -1 0 -7 5
-9 10 -6 6 3 10 1 10 -6 0 -7 7 -4 15 7 8 10 15 14 15 8 0 -6 10 -10 23 -9 33
3 46 -4 44 -27 -1 -16 -6 -19 -30 -14 -15 3 -26 2 -23 -2 2 -4 -7 -7 -20 -7
-13 0 -24 3 -24 8 0 4 -5 7 -11 7 -5 0 -8 -3 -6 -7 9 -14 -122 -7 -138 7 -13
11 -15 10 -10 -1 4 -10 -2 -14 -19 -14 -13 0 -22 3 -19 7 2 5 -1 8 -6 8 -6 0
-11 -4 -11 -9 0 -12 -43 -1 -52 13 -5 7 -8 4 -8 -6 0 -11 -5 -15 -15 -12 -17
7 -45 -12 -45 -30 0 -6 5 -4 10 4 7 11 10 11 10 2 0 -7 4 -10 10 -7 5 3 10 1
10 -5 0 -7 6 -10 13 -7 10 4 13 -2 9 -19 -2 -13 -9 -24 -14 -24 -5 0 -6 6 -2
12 5 9 2 9 -9 -1 -15 -12 -21 -9 -18 11 0 5 -4 8 -10 8 -6 0 -9 -9 -6 -19 4
-17 2 -18 -13 -8 -10 6 -16 15 -14 19 3 4 0 8 -5 8 -6 0 -9 -10 -7 -22 3 -13
5 -26 5 -30 1 -5 10 -8 21 -8 11 0 23 -7 26 -15 4 -8 11 -12 17 -8 6 4 8 0 4
-11 -4 -10 -3 -15 3 -11 6 3 10 1 10 -4 0 -12 68 -15 94 -5 9 3 16 13 16 21 0
8 5 11 10 8 6 -3 10 -1 10 4 0 6 5 11 11 11 5 0 7 -6 4 -12 -4 -7 1 -4 9 6 10
13 16 15 16 7 0 -10 3 -11 14 -2 11 9 16 9 22 0 5 -8 3 -9 -6 -4 -9 5 -11 4
-6 -4 6 -9 11 -9 22 0 8 6 14 8 14 4 0 -4 6 -2 14 4 11 9 16 9 22 0 5 -8 3 -9
-6 -4 -9 6 -11 4 -5 -5 6 -10 11 -9 22 5 7 11 13 13 13 6 0 -7 5 -9 12 -5 7 5
9 2 5 -9 -4 -12 -1 -15 14 -12 16 3 18 1 10 -9 -9 -11 -1 -13 46 -12 41 1 58
5 58 14 0 8 9 20 19 28 11 8 16 14 10 14 -5 0 -3 4 4 9 17 10 26 75 9 64 -8
-5 -8 -2 1 9 9 12 10 18 2 23 -8 5 -8 11 1 21 8 10 8 14 0 14 -6 0 -11 5 -11
11 0 5 6 7 13 3 9 -6 9 -5 0 8 -7 8 -10 18 -6 22 11 11 10 76 -2 76 -7 0 -7 3
0 8 12 8 13 22 2 39 -4 6 -3 15 3 18 6 4 8 16 4 27 -4 14 -2 18 5 14 8 -5 8 0
2 17 -8 21 -6 26 15 37 13 8 22 16 19 18 -9 10 17 31 31 25 12 -4 14 2 12 31
-1 24 -8 38 -20 42 -10 3 -18 10 -18 17 0 8 3 8 12 -1 7 -7 17 -12 22 -12 6 0
2 7 -8 15 -27 21 -171 21 -163 1z m-362 -180 c5 3 9 1 9 -5 0 -5 -6 -11 -12
-14 -17 -5 -38 3 -38 15 0 5 5 6 10 3 6 -3 10 0 11 7 0 10 2 10 6 0 2 -6 9
-10 14 -6z m78 -16 c-16 -10 -32 -3 -23 11 3 5 10 7 15 4 5 -4 9 0 10 7 0 10
2 10 6 -1 3 -7 -1 -17 -8 -21z m182 17 c-6 -8 -8 -16 -5 -19 2 -3 -1 -8 -8
-11 -8 -3 -14 2 -14 13 0 10 4 17 7 14 4 -2 10 0 14 6 3 5 9 10 12 10 3 0 0
-6 -6 -13z m104 2 c3 -3 -5 -14 -17 -25 -12 -10 -18 -13 -14 -6 4 7 2 12 -6
13 -10 0 -10 2 0 6 6 2 10 8 7 13 -5 9 21 8 30 -1z m-182 -12 c3 -7 -3 -13
-13 -13 -10 0 -17 3 -14 7 2 4 -2 10 -8 12 -7 3 -3 6 8 6 12 1 24 -5 27 -12z
m-91 -81 c5 3 4 -3 -3 -14 -10 -15 -17 -18 -26 -11 -9 8 -10 14 0 24 7 7 14 9
15 4 2 -5 8 -6 14 -3z m79 -28 c-10 -11 -11 -10 -5 5 4 12 2 16 -7 14 -8 -2
-11 -2 -6 0 4 3 4 10 1 16 -4 7 1 4 12 -5 15 -14 16 -20 5 -30z m91 24 c-7 -2
-10 -7 -7 -12 7 -11 -22 -7 -32 5 -4 4 -2 5 5 1 7 -4 12 -1 12 8 0 10 6 13 17
9 11 -4 13 -8 5 -11z m98 3 c11 -13 10 -14 -5 -9 -11 5 -16 4 -12 -3 3 -5 0
-10 -8 -10 -8 0 -12 4 -9 8 2 4 1 9 -3 12 -5 2 -2 2 5 1 6 -2 12 1 12 6 0 14
6 12 20 -5z m21 -173 c0 -14 2 -13 9 3 7 17 9 16 9 -10 1 -23 4 -27 11 -15 7
11 10 11 10 2 0 -7 -10 -17 -22 -22 -13 -5 -17 -9 -9 -9 8 -1 12 -3 9 -6 -3
-3 -13 -3 -22 1 -12 5 -16 17 -14 45 2 36 17 46 19 11z m-236 -40 c-5 12 -1
14 22 10 15 -2 34 -10 42 -16 11 -8 13 -8 8 0 -4 7 0 14 8 18 8 3 15 0 15 -6
0 -7 6 -6 16 2 13 11 16 10 20 -8 4 -11 11 -19 17 -18 7 2 9 1 4 -1 -4 -3 -4
-10 0 -16 3 -7 -4 -3 -16 7 -22 20 -22 20 -15 0 4 -10 4 -16 -1 -12 -4 4 -15
2 -23 -5 -13 -9 -14 -9 -8 1 9 16 -6 16 -23 0 -11 -10 -13 -10 -7 0 5 7 1 12
-9 12 -9 0 -14 -4 -11 -8 3 -5 -1 -9 -9 -9 -8 0 -12 4 -8 10 7 11 -48 6 -65
-7 -7 -5 -15 -6 -19 -2 -3 3 -1 6 5 6 7 0 12 5 12 11 0 5 -4 7 -10 4 -5 -3
-10 1 -10 10 0 10 -5 13 -12 9 -7 -5 -8 -3 -3 5 5 9 11 9 17 3 14 -14 40 -3
31 12 -3 6 4 2 16 -8 16 -15 20 -16 16 -4z"/>
<path d="M355 230 c-3 -5 -1 -10 4 -10 6 0 11 5 11 10 0 6 -2 10 -4 10 -3 0
-8 -4 -11 -10z"/>
</g>
</svg>
